<svg width="23" height="24" viewBox="0 0 23 24" fill="none" xmlns="http://www.w3.org/2000/svg">
<path d="M1.99992 3.98364C0.895595 3.98364 0 4.87919 0 5.98431C0 7.08863 0.895595 7.98342 1.99992 7.98342C3.10424 7.98342 3.99983 7.08863 3.99983 5.98431C3.99983 4.87919 3.10424 3.98364 1.99992 3.98364Z" fill="white"/>
<path d="M1.99992 10.0005C0.895595 10.0005 0 10.8953 0 12.0004C0 13.1047 0.895595 14.0003 1.99992 14.0003C3.10424 14.0003 3.99983 13.1047 3.99983 12.0004C3.99983 10.8953 3.10424 10.0005 1.99992 10.0005Z" fill="white"/>
<path d="M1.99992 16.0168C0.895595 16.0168 0 16.9124 0 18.0167C0 19.121 0.895595 20.0166 1.99992 20.0166C3.10424 20.0166 3.99983 19.121 3.99983 18.0167C3.99983 16.9124 3.10424 16.0168 1.99992 16.0168Z" fill="white"/>
<path d="M21.496 4.47974H7.26999C6.43953 4.47974 5.76611 5.15316 5.76611 5.98436C5.76611 6.81486 6.43948 7.48823 7.26999 7.48823H21.496C22.3264 7.48823 22.9999 6.81486 22.9999 5.98436C22.9999 5.15316 22.3264 4.47974 21.496 4.47974Z" fill="white"/>
<path d="M21.496 10.4958H7.26999C6.43953 10.4958 5.76611 11.1692 5.76611 12.0005C5.76611 12.831 6.43948 13.5043 7.26999 13.5043H21.496C22.3264 13.5043 22.9999 12.831 22.9999 12.0005C22.9999 11.1692 22.3264 10.4958 21.496 10.4958Z" fill="white"/>
<path d="M21.496 16.5127H7.26999C6.43953 16.5127 5.76611 17.1861 5.76611 18.0166C5.76611 18.847 6.43948 19.5204 7.26999 19.5204H21.496C22.3264 19.5204 22.9999 18.847 22.9999 18.0166C22.9999 17.186 22.3264 16.5127 21.496 16.5127Z" fill="white"/>
</svg>
