<svg width="25" height="25" viewBox="0 0 25 25" fill="none" xmlns="http://www.w3.org/2000/svg">
<g filter="url(#filter0_b)">
<g clip-path="url(#clip0)">
<path d="M13.8811 12.5008L24.714 1.6679C25.0954 1.2865 25.0954 0.668142 24.714 0.286795C24.3326 -0.0945525 23.7142 -0.0946013 23.3329 0.286795L12.5 11.1197L1.66715 0.286795C1.28575 -0.0946013 0.667394 -0.0946013 0.286047 0.286795C-0.0953001 0.668191 -0.095349 1.28655 0.286047 1.6679L11.1189 12.5007L0.286047 23.3336C-0.095349 23.715 -0.095349 24.3334 0.286047 24.7147C0.47672 24.9054 0.726671 25.0007 0.976622 25.0007C1.22657 25.0007 1.47647 24.9054 1.6672 24.7147L12.5 13.8819L23.3328 24.7147C23.5235 24.9054 23.7735 25.0007 24.0234 25.0007C24.2734 25.0007 24.5233 24.9054 24.714 24.7147C25.0954 24.3333 25.0954 23.715 24.714 23.3336L13.8811 12.5008Z" fill="black"/>
</g>
</g>
<defs>
<filter id="filter0_b" x="-4" y="-4" width="33" height="33" filterUnits="userSpaceOnUse" color-interpolation-filters="sRGB">
<feFlood flood-opacity="0" result="BackgroundImageFix"/>
<feGaussianBlur in="BackgroundImage" stdDeviation="2"/>
<feComposite in2="SourceAlpha" operator="in" result="effect1_backgroundBlur"/>
<feBlend mode="normal" in="SourceGraphic" in2="effect1_backgroundBlur" result="shape"/>
</filter>
<clipPath id="clip0">
<rect width="25" height="25" rx="10" fill="white"/>
</clipPath>
</defs>
</svg>
