<svg width="30" height="26" viewBox="0 0 30 26" fill="none" xmlns="http://www.w3.org/2000/svg">
<path d="M8.09727 0C9.6954 0 11.1606 0.506425 12.4521 1.50524C13.6903 2.46281 14.5146 3.68245 14.9999 4.56933C15.4852 3.68239 16.3096 2.46281 17.5477 1.50524C18.8392 0.506425 20.3044 0 21.9026 0C26.3624 0 29.7256 3.64788 29.7256 8.48532C29.7256 13.7114 25.5297 17.2871 19.1778 22.7001C18.0992 23.6193 16.8765 24.6613 15.6057 25.7726C15.4382 25.9192 15.2231 26 14.9999 26C14.7767 26 14.5616 25.9192 14.3941 25.7726C13.1232 24.6612 11.9006 23.6193 10.8213 22.6995C4.47009 17.2871 0.274258 13.7114 0.274258 8.48532C0.274258 3.64788 3.63746 0 8.09727 0Z" fill="white"/>
</svg>
