<svg width="32" height="29" viewBox="0 0 32 29" fill="none" xmlns="http://www.w3.org/2000/svg">
<g filter="url(#filter0_dd)">
<path d="M9.09727 0C10.6954 0 12.1606 0.506425 13.4521 1.50524C14.6903 2.46281 15.5146 3.68245 15.9999 4.56933C16.4852 3.68239 17.3096 2.46281 18.5477 1.50524C19.8392 0.506425 21.3044 0 22.9026 0C27.3624 0 30.7256 3.64788 30.7256 8.48532C30.7256 13.7114 26.5297 17.2871 20.1778 22.7001C19.0992 23.6193 17.8765 24.6613 16.6057 25.7726C16.4382 25.9192 16.2231 26 15.9999 26C15.7767 26 15.5616 25.9192 15.3941 25.7726C14.1232 24.6612 12.9006 23.6193 11.8213 22.6995C5.47009 17.2871 1.27426 13.7114 1.27426 8.48532C1.27426 3.64788 4.63746 0 9.09727 0Z" fill="#FFD164"/>
</g>
<defs>
<filter id="filter0_dd" x="-2.72559" y="0" width="37.4513" height="34" filterUnits="userSpaceOnUse" color-interpolation-filters="sRGB">
<feFlood flood-opacity="0" result="BackgroundImageFix"/>
<feColorMatrix in="SourceAlpha" type="matrix" values="0 0 0 0 0 0 0 0 0 0 0 0 0 0 0 0 0 0 127 0"/>
<feOffset dy="4"/>
<feGaussianBlur stdDeviation="2"/>
<feColorMatrix type="matrix" values="0 0 0 0 0 0 0 0 0 0 0 0 0 0 0 0 0 0 0.25 0"/>
<feBlend mode="normal" in2="BackgroundImageFix" result="effect1_dropShadow"/>
<feColorMatrix in="SourceAlpha" type="matrix" values="0 0 0 0 0 0 0 0 0 0 0 0 0 0 0 0 0 0 127 0"/>
<feOffset dy="4"/>
<feGaussianBlur stdDeviation="2"/>
<feColorMatrix type="matrix" values="0 0 0 0 0 0 0 0 0 0 0 0 0 0 0 0 0 0 0.25 0"/>
<feBlend mode="normal" in2="effect1_dropShadow" result="effect2_dropShadow"/>
<feBlend mode="normal" in="SourceGraphic" in2="effect2_dropShadow" result="shape"/>
</filter>
</defs>
</svg>
