<svg width="27" height="26" viewBox="0 0 27 26" fill="none" xmlns="http://www.w3.org/2000/svg">
<g clip-path="url(#clip0)">
<path d="M2.78906 15.8763V22.9349C2.78906 23.495 3.24467 23.9506 3.80469 23.9506H23.7109C24.271 23.9506 24.7266 23.495 24.7266 22.9349V15.8763H26.7578V22.9349C26.7578 24.615 25.391 25.9818 23.7109 25.9818H3.80469C2.12464 25.9818 0.757812 24.615 0.757812 22.9349V15.8763H2.78906Z" fill="white"/>
<path d="M13.7576 0.0181885L20.0688 6.32948L18.6326 7.76578L14.7732 3.90641V19.7357H12.7419V3.90641L8.88255 7.76578L7.44625 6.32948L13.7576 0.0181885Z" fill="white"/>
</g>
<defs>
<clipPath id="clip0">
<rect width="26" height="26" fill="white" transform="matrix(-1 0 0 1 26.7578 0)"/>
</clipPath>
</defs>
</svg>
