<svg width="127" height="126" viewBox="0 0 127 126" fill="none" xmlns="http://www.w3.org/2000/svg">
<g clip-path="url(#clip0)">
<path d="M9.95255 76.8715V111.048C9.95255 113.76 12.1586 115.966 14.8701 115.966H111.253C113.965 115.966 116.171 113.76 116.171 111.048V76.8715H126.006V111.048C126.006 119.183 119.388 125.801 111.253 125.801H14.8701C6.73552 125.801 0.117531 119.183 0.117531 111.048V76.8715H9.95255Z" fill="white"/>
<path d="M63.0627 0.0875854L93.6211 30.646L86.6667 37.6003L67.9802 18.9138V95.5572H58.1452V18.9138L39.4586 37.6003L32.5043 30.646L63.0627 0.0875854Z" fill="white"/>
</g>
<defs>
<clipPath id="clip0">
<rect width="125.888" height="125.888" fill="white" transform="matrix(-1 0 0 1 126.006 0)"/>
</clipPath>
</defs>
</svg>
