<svg width="33" height="29" viewBox="0 0 33 29" fill="none" xmlns="http://www.w3.org/2000/svg">
<path d="M9.52196 1C11.2852 1 12.9082 1.5636 14.3211 2.65631C15.0761 3.24025 15.683 3.90877 16.1591 4.54608C16.6352 3.90876 17.2421 3.24025 17.9972 2.65631C19.4101 1.5636 21.0331 1 22.7963 1C27.7118 1 31.3184 5.03335 31.3184 10.1589C31.3184 12.9791 30.1726 15.3133 28.3076 17.5636C26.4801 19.7689 23.8897 21.9763 20.8842 24.5375L20.8249 24.588C20.8249 24.588 20.8249 24.588 20.8249 24.588C19.7873 25.4724 18.6163 26.4703 17.3999 27.534C17.0561 27.8349 16.6152 27.9999 16.1591 27.9999C15.703 27.9999 15.2621 27.8348 14.9183 27.534C13.7018 26.4702 12.5309 25.4723 11.4926 24.5875C11.4926 24.5875 11.4926 24.5875 11.4926 24.5875L11.4333 24.5369C8.42815 21.976 5.83797 19.7687 4.01049 17.5636C2.14566 15.3133 0.999859 12.9791 0.999859 10.1589C0.999859 5.03335 4.60646 1 9.52196 1Z" fill="white" stroke="black" stroke-width="2"/>
</svg>
