<svg width="101" height="81" viewBox="0 0 101 81" fill="none" xmlns="http://www.w3.org/2000/svg">
<path d="M90.5 68.6323L90.5 11.9668C90.5 11.0464 89.7538 10.3002 88.8334 10.3002L12.1683 10.3002C11.2479 10.3002 10.5017 11.0464 10.5017 11.9668L10.5017 68.6323C10.5017 69.5527 11.2479 70.2989 12.1683 70.2989L88.8334 70.2989C89.754 70.2989 90.5 69.5527 90.5 68.6323ZM13.8349 66.9656L13.8349 13.6334L87.1667 13.6334L87.1667 66.9656L13.8349 66.9656Z" fill="black"/>
<path d="M50.5121 77.0021L65.7185 80.2621C65.9491 80.3121 66.1878 80.3121 66.4185 80.2621L81.6465 76.9988L97.9028 79.9171C98.4459 80.0144 99.002 79.8364 99.3878 79.4421C99.7763 79.0506 99.9434 78.4908 99.8328 77.9504L97.2095 64.799L100.441 52.956C100.52 52.6685 100.52 52.3651 100.441 52.0776L97.2262 40.2996L100.441 28.5098C100.519 28.2227 100.519 27.92 100.441 27.6332L97.2128 15.7884L99.8328 2.64868C99.874 2.44222 99.8759 2.22973 99.8382 2.02265C99.673 1.11704 98.8051 0.517056 97.8995 0.682052L81.6315 3.60199L66.3901 0.337058C66.1601 0.287059 65.9218 0.287059 65.6918 0.337058L50.4888 3.59699L35.2825 0.337057C35.0518 0.287058 34.8131 0.287058 34.5825 0.337057L19.3545 3.60032L3.09813 0.682048C2.8923 0.644965 2.68127 0.64684 2.47606 0.687881C1.57337 0.868086 0.987755 1.74598 1.16817 2.64867L3.79145 15.8001L0.559851 27.6515C0.48152 27.9386 0.48152 28.2411 0.559851 28.5281L3.77479 40.3079L0.55985 52.0926C0.521307 52.2356 0.501722 52.3828 0.501516 52.531C0.501936 52.6778 0.521513 52.8241 0.55985 52.966L3.79145 64.8107L1.17151 77.9504C1.13046 78.1556 1.12858 78.3667 1.16567 78.5725C1.329 79.4783 2.19564 80.0804 3.10146 79.9171L19.3011 76.9988L34.6125 80.2621C34.8423 80.3104 35.0793 80.3104 35.3091 80.2621L50.5121 77.0021ZM19.0345 73.6639L4.91809 76.2055L7.13471 65.079C7.18554 64.8261 7.177 64.5649 7.10971 64.3157L3.89478 52.5343L7.10971 40.7495C7.18825 40.4621 7.18825 40.1587 7.10971 39.8712L3.89478 28.0931L7.10971 16.3034C7.14825 16.1605 7.16784 16.0132 7.16804 15.8651L7.16804 15.8617C7.16721 15.7526 7.15555 15.6436 7.13305 15.5367L4.91476 4.3953L19.0811 6.94025C19.2947 6.97858 19.5138 6.97525 19.7261 6.93025L34.9275 3.67032L50.1338 6.93025C50.3644 6.98025 50.6032 6.98025 50.8338 6.93025L66.0418 3.67032L81.2548 6.93025C81.4665 6.97525 81.685 6.9788 81.8981 6.94025L96.0829 4.39531L93.8662 15.5234C93.8146 15.7763 93.8231 16.0378 93.8912 16.2867L97.1062 28.0681L93.8912 39.8529C93.8127 40.1404 93.8127 40.4437 93.8912 40.7312L97.1062 52.5093L93.8912 64.2991C93.8231 64.548 93.8146 64.8095 93.8662 65.0624L96.0862 76.2038L81.9198 73.6589C81.7063 73.6205 81.4871 73.6239 81.2748 73.6689L66.0735 76.9288L50.8671 73.6689C50.6365 73.6189 50.3978 73.6189 50.1671 73.6689L34.9575 76.9321L19.6761 73.6739C19.4649 73.6291 19.247 73.6257 19.0345 73.6639Z" fill="black"/>
</svg>
