<svg width="103" height="70" viewBox="0 0 103 70" fill="none" xmlns="http://www.w3.org/2000/svg">
<path d="M84.265 51.1828C81.756 51.1828 79.3725 52.1655 77.5744 53.9427C75.7763 55.7407 74.7727 58.0824 74.7727 60.5914C74.7727 63.1004 75.7554 65.4421 77.5744 67.2401C79.3934 69.0173 81.756 70 84.265 70C89.4083 70 93.59 65.7766 93.59 60.5914C93.59 55.4062 89.4083 51.1828 84.265 51.1828ZM84.265 65.8184C81.3797 65.8184 78.9543 63.4349 78.9543 60.5914C78.9543 57.7479 81.3797 55.3644 84.265 55.3644C87.1085 55.3644 89.4083 57.7061 89.4083 60.5914C89.4083 63.4767 87.1085 65.8184 84.265 65.8184ZM86.6903 19.8417C86.314 19.4863 85.8122 19.2981 85.2895 19.2981H74.5637C73.4137 19.2981 72.4729 20.2389 72.4729 21.3889V38.5335C72.4729 39.6834 73.4137 40.6243 74.5637 40.6243H91.5828C92.7327 40.6243 93.6736 39.6834 93.6736 38.5335V27.055C93.6736 26.4695 93.4227 25.905 92.9836 25.5078L86.6903 19.8417ZM89.492 36.4426H76.6545V23.4588H84.4741L89.492 27.9749V36.4426ZM33.2076 51.1828C30.6987 51.1828 28.3152 52.1655 26.5171 53.9427C24.719 55.7407 23.7154 58.0824 23.7154 60.5914C23.7154 63.1004 24.6981 65.4421 26.5171 67.2401C28.3361 69.0173 30.6987 70 33.2076 70C38.351 70 42.5326 65.7766 42.5326 60.5914C42.5326 55.4062 38.351 51.1828 33.2076 51.1828ZM33.2076 65.8184C30.3223 65.8184 27.897 63.4349 27.897 60.5914C27.897 57.7479 30.3223 55.3644 33.2076 55.3644C36.0511 55.3644 38.351 57.7061 38.351 60.5914C38.351 63.4767 36.0511 65.8184 33.2076 65.8184ZM19.262 53.7545H15.0595V48.193C15.0595 47.043 14.1186 46.1022 12.9687 46.1022C11.8187 46.1022 10.8779 47.043 10.8779 48.193V55.8453C10.8779 56.9952 11.8187 57.9361 12.9687 57.9361H19.262C20.4119 57.9361 21.3528 56.9952 21.3528 55.8453C21.3528 54.6953 20.4119 53.7545 19.262 53.7545ZM29.8623 42.3596C29.8623 41.2097 28.9215 40.2688 27.7715 40.2688H2.41014C1.2602 40.2688 0.319336 41.2097 0.319336 42.3596C0.319336 43.5096 1.2602 44.4504 2.41014 44.4504H27.7715C28.9215 44.4504 29.8623 43.5305 29.8623 42.3596ZM6.65446 34.8118L32.0159 34.9582C33.1658 34.9582 34.1067 34.0382 34.1276 32.8883C34.1485 31.7174 33.2076 30.7766 32.0577 30.7766L6.69628 30.6302C6.67537 30.6302 6.67537 30.6302 6.67537 30.6302C5.52543 30.6302 4.58457 31.5502 4.58457 32.7001C4.56366 33.871 5.50452 34.8118 6.65446 34.8118ZM10.9197 25.3196H36.2811C37.431 25.3196 38.3719 24.3787 38.3719 23.2288C38.3719 22.0788 37.431 21.138 36.2811 21.138H10.9197C9.76975 21.138 8.82889 22.0788 8.82889 23.2288C8.82889 24.3787 9.76975 25.3196 10.9197 25.3196ZM102.225 22.497L87.2548 10.0986C86.8785 9.78494 86.4185 9.61768 85.9167 9.61768H68.3122V2.0908C68.3122 0.94086 67.3713 0 66.2214 0H12.9687C11.8187 0 10.8779 0.94086 10.8779 2.0908V17.3955C10.8779 18.5454 11.8187 19.4863 12.9687 19.4863C14.1186 19.4863 15.0595 18.5454 15.0595 17.3955V4.1816H64.1515V53.7545H47.0069C45.857 53.7545 44.9161 54.6953 44.9161 55.8453C44.9161 56.9952 45.857 57.9361 47.0069 57.9361H72.5356C73.6855 57.9361 74.6264 56.9952 74.6264 55.8453C74.6264 54.6953 73.6855 53.7545 72.5356 53.7545H68.3331V13.7993H85.1849L98.8169 25.0896L98.6706 53.7127H96.4962C95.3462 53.7127 94.4054 54.6535 94.4054 55.8035C94.4054 56.9534 95.3462 57.8943 96.4962 57.8943H100.74C101.89 57.8943 102.831 56.9743 102.831 55.8244L102.999 24.1278C102.978 23.5006 102.706 22.8943 102.225 22.497Z" fill="black"/>
</svg>
