<svg width="71" height="70" viewBox="0 0 71 70" fill="none" xmlns="http://www.w3.org/2000/svg">
<path d="M64.082 16.4062H55.7366C57.0269 14.6912 57.793 12.5605 57.793 10.2539C57.793 4.5999 53.1931 0 47.5391 0C44.1333 0 41.6219 1.22021 39.6355 3.84002C37.9737 6.03189 36.7585 9.09221 35.2344 12.9589C33.7102 9.09207 32.4951 6.03189 30.8333 3.84002C28.8469 1.22021 26.3355 0 22.9297 0C17.2757 0 12.6758 4.5999 12.6758 10.2539C12.6758 12.5605 13.4418 14.6912 14.7322 16.4062H6.38672C2.99432 16.4062 0.234375 19.1662 0.234375 22.5586V26.6602C0.234375 29.3337 1.94896 31.6132 4.33594 32.4598V63.8477C4.33594 67.2401 7.09588 70 10.4883 70H59.9805C63.3729 70 66.1328 67.2401 66.1328 63.8477V32.4598C68.5198 31.6132 70.2344 29.3337 70.2344 26.6602V22.5586C70.2344 19.1662 67.4744 16.4062 64.082 16.4062ZM38.9988 14.5934C42.1404 6.62293 43.3348 4.10156 47.5391 4.10156C50.9315 4.10156 53.6914 6.8615 53.6914 10.2539C53.6914 13.6463 50.9315 16.4062 47.5391 16.4062H38.2814C38.5327 15.7753 38.7724 15.1679 38.9988 14.5934ZM22.9297 4.10156C27.1339 4.10156 28.3283 6.62293 31.47 14.5934C31.6964 15.1679 31.936 15.7753 32.1873 16.4062H22.9297C19.5373 16.4062 16.7773 13.6463 16.7773 10.2539C16.7773 6.8615 19.5373 4.10156 22.9297 4.10156ZM27.0312 65.8984H10.4883C9.35748 65.8984 8.4375 64.9785 8.4375 63.8477V32.8125H27.0312V65.8984ZM27.0312 28.7109H6.38672C5.25592 28.7109 4.33594 27.791 4.33594 26.6602V22.5586C4.33594 21.4278 5.25592 20.5078 6.38672 20.5078H27.0312V28.7109ZM39.3359 65.8984H31.1328V20.5078C31.5625 20.5078 36.9789 20.5078 39.3359 20.5078V65.8984ZM62.0312 63.8477C62.0312 64.9785 61.1113 65.8984 59.9805 65.8984H43.4375V32.8125H62.0312V63.8477ZM66.1328 26.6602C66.1328 27.791 65.2128 28.7109 64.082 28.7109H43.4375V20.5078H64.082C65.2128 20.5078 66.1328 21.4278 66.1328 22.5586V26.6602Z" fill="black"/>
</svg>
