<svg width="95" height="71" viewBox="0 0 95 71" fill="none" xmlns="http://www.w3.org/2000/svg">
<path d="M92.9537 11.9694C91.3741 6.23023 87.8682 2.27161 83.0732 0.820131C82.9206 0.774664 79.2801 -0.278791 74.0233 0.74643C69.5038 1.62755 62.8535 4.27163 56.3113 11.7883C54.5971 10.7073 52.569 10.0814 50.3977 10.0814H44.2647C42.1276 10.0814 40.1294 10.6875 38.4322 11.7371C31.91 4.26595 25.2855 1.63011 20.7776 0.748813C15.5142 -0.280074 11.8674 0.774847 11.7063 0.822515C6.9199 2.27143 3.41394 6.23004 1.83412 11.969C-0.134915 19.1197 0.365778 27.0368 1.13286 32.4194C2.22665 40.0878 5.98158 45.2653 11.7149 47.0007C11.8174 47.0312 13.5092 47.521 16.2149 47.521C16.5049 47.521 16.8069 47.5153 17.1195 47.5029L11.6916 60.2263C11.4373 60.8221 11.5167 61.5082 11.9001 62.0305C12.2836 62.553 12.9145 62.8344 13.5589 62.7701L24.2454 61.711L31.4427 69.6938C31.7932 70.0827 32.2897 70.2996 32.8042 70.2996C32.9044 70.2996 33.0053 70.2913 33.1057 70.2746C33.7229 70.1718 34.245 69.7611 34.4907 69.1856L47.3939 38.9398L60.2972 69.1856C60.5429 69.7611 61.065 70.1716 61.6821 70.2746C61.7828 70.2915 61.8836 70.2996 61.9839 70.2996C62.4983 70.2996 62.9948 70.0828 63.3454 69.6938L70.5426 61.711L81.2291 62.7701C81.8725 62.8343 82.5046 62.5528 82.888 62.0305C83.2713 61.5082 83.3505 60.8223 83.0964 60.2263L77.6686 47.5029C77.9808 47.5153 78.2822 47.521 78.5719 47.521C81.2786 47.521 82.9736 47.0304 83.0818 46.9983C88.8065 45.2654 92.5614 40.088 93.6554 32.4192C94.4219 27.0368 94.9228 19.1197 92.9537 11.9694ZM50.3977 13.7481C54.5118 13.7481 57.8588 17.1014 57.8588 21.223V27.0417C57.8588 31.1633 54.5118 34.5166 50.3977 34.5166H44.2647C40.1501 34.5166 36.8024 31.1633 36.8024 27.0417V21.223C36.8024 17.1014 40.1501 13.7481 44.2647 13.7481H50.3977ZM12.7689 43.4887C6.99158 41.7399 5.27316 35.4785 4.76312 31.902C4.04535 26.8641 3.56776 19.4853 5.36978 12.9424C6.08406 10.3469 7.99517 5.77702 12.7606 4.33452C12.8778 4.29969 24.2894 1.0999 35.6719 14.15C34.4984 15.5764 33.6717 17.2986 33.3219 19.1867L28.1036 16.965C27.1728 16.5682 26.0955 17.002 25.6986 17.9335C25.302 18.8653 25.7356 19.942 26.6673 20.3386L33.1356 23.0925V27.0417C33.1356 27.0799 33.1358 27.118 33.1362 27.1561L26.6671 29.9104C25.7354 30.3071 25.3018 31.3839 25.6984 32.3154C25.9954 33.0128 26.6732 33.431 27.3862 33.431C27.6256 33.431 27.8693 33.3837 28.1034 33.284L33.8072 30.8555C34.2087 31.9557 34.7789 32.9753 35.4862 33.8828C30.871 39.1117 25.7394 42.3264 20.2149 43.4451C15.8161 44.3361 12.7817 43.4924 12.7689 43.4887ZM32.2442 65.1069L26.3485 58.5676C25.9585 58.135 25.3862 57.9137 24.8061 57.9709L16.2802 58.8159L21.3403 46.9547C25.7719 45.9784 32.0118 43.3182 38.1822 36.3679C39.7931 37.4247 41.6932 38.0746 43.7356 38.1707L32.2442 65.1069ZM69.9822 57.9709C69.4026 57.9137 68.8297 58.135 68.4397 58.5676L62.544 65.1069L51.05 38.1644C53.079 38.0465 54.9639 37.3818 56.5595 36.3155C62.7438 43.3039 69.0037 45.9757 73.4481 46.9547L78.5082 58.8159L69.9822 57.9709ZM90.0251 31.9018C89.5149 35.4785 87.7965 41.74 82.0278 43.4863C81.9115 43.5206 70.5773 46.6989 59.2348 33.8059C59.9245 32.9048 60.4798 31.8958 60.871 30.8088L66.6847 33.2838C66.9188 33.3835 67.1622 33.4308 67.4019 33.4308C68.1149 33.4308 68.7927 33.0125 69.0897 32.3152C69.4862 31.3835 69.0526 30.3068 68.1209 29.9102L61.5256 27.1022C61.5257 27.0821 61.5257 27.0619 61.5257 27.0415V23.1464L68.1209 20.3384C69.0526 19.9416 69.4862 18.8649 69.0897 17.9334C68.6929 17.0018 67.6162 16.568 66.6847 16.9648L61.3486 19.2367C61.0104 17.3621 60.202 15.6492 59.0509 14.2248C63.7135 8.84498 68.9115 5.53739 74.5177 4.38677C78.9468 3.47742 82.0065 4.32847 82.0193 4.33214C86.7931 5.77702 88.7042 10.3471 89.4186 12.9426C91.2201 19.4855 90.7427 26.8643 90.0251 31.9018Z" fill="black"/>
</svg>
