<svg width="79" height="70" viewBox="0 0 79 70" fill="none" xmlns="http://www.w3.org/2000/svg">
<path d="M39.5529 70C38.4327 70 37.3528 69.5942 36.5112 68.8571C33.3327 66.0778 30.2683 63.4659 27.5647 61.1621L27.5508 61.1501C19.6242 54.3951 12.7792 48.5616 8.01653 42.8151C2.69265 36.3909 0.212891 30.2998 0.212891 23.6457C0.212891 17.1807 2.42973 11.2163 6.4546 6.85041C10.5275 2.43294 16.1161 0 22.1927 0C26.7345 0 30.8938 1.43587 34.5549 4.2674C36.4026 5.69667 38.0774 7.44589 39.5529 9.48625C41.0289 7.44589 42.7031 5.69667 44.5514 4.2674C48.2125 1.43587 52.3718 0 56.9136 0C62.9896 0 68.5788 2.43294 72.6517 6.85041C76.6766 11.2163 78.8928 17.1807 78.8928 23.6457C78.8928 30.2998 76.4137 36.3909 71.0898 42.8145C66.3271 48.5616 59.4828 54.3945 51.5573 61.1489C48.8488 63.4563 45.7796 66.0724 42.5939 68.8583C41.7529 69.5942 40.6724 70 39.5529 70ZM22.1927 4.60896C17.4187 4.60896 13.0331 6.51425 9.84259 9.97427C6.60467 13.4865 4.82124 18.3416 4.82124 23.6457C4.82124 29.2421 6.90121 34.2472 11.5648 39.8743C16.0723 45.3134 22.7768 51.0269 30.5396 57.6426L30.5541 57.6546C33.2679 59.9675 36.3444 62.5895 39.5462 65.3892C42.7674 62.5841 45.8486 59.9579 48.5679 57.6414C56.3301 51.0257 63.034 45.3134 67.5415 39.8743C72.2045 34.2472 74.2845 29.2421 74.2845 23.6457C74.2845 18.3416 72.501 13.4865 69.2631 9.97427C66.0732 6.51425 61.687 4.60896 56.9136 4.60896C53.4163 4.60896 50.2054 5.72068 47.3703 7.91291C44.8437 9.86742 43.0837 12.3382 42.0518 14.067C41.5212 14.956 40.5871 15.4867 39.5529 15.4867C38.5186 15.4867 37.5845 14.956 37.0539 14.067C36.0226 12.3382 34.2626 9.86742 31.7354 7.91291C28.9003 5.72068 25.6894 4.60896 22.1927 4.60896Z" fill="black"/>
</svg>
